<svg id="Layer_1" data-name="Layer 1" xmlns="http://www.w3.org/2000/svg" xmlns:xlink="http://www.w3.org/1999/xlink" viewBox="0 0 1200 1200"><defs><style>.cls-1,.cls-9{fill:#9dd5c0;}.cls-11,.cls-12,.cls-13,.cls-14,.cls-2,.cls-4{fill:none;}.cls-3{fill:#e9e8e8;}.cls-11,.cls-12,.cls-14,.cls-4{stroke:#1d252e;}.cls-11,.cls-12,.cls-13,.cls-14,.cls-4{stroke-linecap:round;}.cls-11,.cls-12,.cls-13,.cls-4{stroke-linejoin:round;}.cls-4{stroke-width:6.1px;}.cls-5{fill:#1d252e;}.cls-6{fill:#fff;}.cls-7{clip-path:url(#clip-path);}.cls-8,.cls-9{fill-rule:evenodd;}.cls-10{clip-path:url(#clip-path-2);}.cls-11,.cls-14{stroke-width:3px;}.cls-12{stroke-width:4px;}.cls-13{stroke:#000;stroke-width:3.05px;}</style><clipPath id="clip-path"><rect class="cls-1" x="195.59" y="631.53" width="612.49" height="32.5"/></clipPath><clipPath id="clip-path-2"><rect class="cls-2" x="195.5" y="339.6" width="612.42" height="32.5"/></clipPath></defs><path id="Oval" class="cls-3" d="M491.37,255.63c-195.48,0-293.88,230.67-251.44,393.64s82,295.1,430.8,295.1c333.65,0,319.54-132.12,277.09-295.1S686.84,255.63,491.37,255.63Z"/><path class="cls-1" d="M811.76,289.82V699.35H192.15V289.82a9.24,9.24,0,0,1,9.24-9.24H802.52A9.24,9.24,0,0,1,811.76,289.82Z"/><polyline class="cls-4" points="811.76 321.5 811.76 699.35 192.15 699.35 192.15 318.06"/><path class="cls-5" d="M811.76,289v19.66H192.15V289c0-6.68,4.79-12.1,10.7-12.1H801.06C807,276.9,811.76,282.32,811.76,289Z"/><circle class="cls-1" cx="209.09" cy="293.01" r="5.41"/><circle class="cls-6" cx="226.54" cy="293.01" r="5.41"/><path class="cls-6" d="M243.28,289.12a3.89,3.89,0,1,1-3.89,3.89,3.89,3.89,0,0,1,3.89-3.89m0-1.52a5.42,5.42,0,1,0,5.41,5.41,5.42,5.42,0,0,0-5.41-5.41Z"/><rect class="cls-1" x="195.59" y="631.53" width="612.49" height="32.5"/><g class="cls-7"><rect class="cls-6" x="136.99" y="610.87" width="736.89" height="73.81"/><polygon class="cls-8" points="161.73 697.29 133.55 697.29 167.81 587.9 195.99 587.9 161.73 697.29"/><polygon class="cls-9" points="218.59 697.29 190.42 697.29 224.68 587.9 252.85 587.9 218.59 697.29"/><polygon class="cls-9" points="275.45 697.29 247.28 697.29 281.54 587.9 309.71 587.9 275.45 697.29"/><polygon class="cls-9" points="332.32 697.29 304.14 697.29 338.4 587.9 366.58 587.9 332.32 697.29"/><polygon class="cls-9" points="389.18 697.29 361.01 697.29 395.27 587.9 423.44 587.9 389.18 697.29"/><polygon class="cls-9" points="446.05 697.29 417.87 697.29 452.13 587.9 480.31 587.9 446.05 697.29"/><polygon class="cls-9" points="502.91 697.29 474.74 697.29 509 587.9 537.17 587.9 502.91 697.29"/><polygon class="cls-9" points="559.77 697.29 531.6 697.29 565.86 587.9 594.03 587.9 559.77 697.29"/><polygon class="cls-9" points="616.64 697.29 588.46 697.29 622.72 587.9 650.9 587.9 616.64 697.29"/><polygon class="cls-9" points="673.5 697.29 645.33 697.29 679.59 587.9 707.76 587.9 673.5 697.29"/><polygon class="cls-9" points="730.37 697.29 702.19 697.29 736.45 587.9 764.62 587.9 730.37 697.29"/><polygon class="cls-9" points="787.23 697.29 759.05 697.29 793.31 587.9 821.49 587.9 787.23 697.29"/><polygon class="cls-8" points="844.09 697.29 815.92 697.29 850.18 587.9 878.35 587.9 844.09 697.29"/></g><g class="cls-10"><rect class="cls-6" x="136.99" y="318.95" width="736.89" height="73.81"/><polygon class="cls-8" points="161.73 405.37 133.55 405.37 167.81 295.98 195.99 295.98 161.73 405.37"/><polygon class="cls-9" points="218.59 405.37 190.42 405.37 224.68 295.98 252.85 295.98 218.59 405.37"/><polygon class="cls-9" points="275.45 405.37 247.28 405.37 281.54 295.98 309.71 295.98 275.45 405.37"/><polygon class="cls-9" points="332.32 405.37 304.14 405.37 338.4 295.98 366.58 295.98 332.32 405.37"/><polygon class="cls-9" points="389.18 405.37 361.01 405.37 395.27 295.98 423.44 295.98 389.18 405.37"/><polygon class="cls-9" points="446.05 405.37 417.87 405.37 452.13 295.98 480.31 295.98 446.05 405.37"/><polygon class="cls-9" points="502.91 405.37 474.74 405.37 509 295.98 537.17 295.98 502.91 405.37"/><polygon class="cls-9" points="559.77 405.37 531.6 405.37 565.86 295.98 594.03 295.98 559.77 405.37"/><polygon class="cls-9" points="616.64 405.37 588.46 405.37 622.72 295.98 650.9 295.98 616.64 405.37"/><polygon class="cls-9" points="673.5 405.37 645.33 405.37 679.59 295.98 707.76 295.98 673.5 405.37"/><polygon class="cls-9" points="730.37 405.37 702.19 405.37 736.45 295.98 764.62 295.98 730.37 405.37"/><polygon class="cls-9" points="787.23 405.37 759.05 405.37 793.31 295.98 821.49 295.98 787.23 405.37"/><polygon class="cls-8" points="844.09 405.37 815.92 405.37 850.18 295.98 878.35 295.98 844.09 405.37"/></g><path id="Path-32" class="cls-6" d="M999.8,875.11l.53,12.69c.11,2.85,5,31.3,2.49,32s-74.48,7-65.78,0,36.28-27.28,36-33c1.62-2.63.14-13.45.14-13.45Z"/><path id="Path-33" class="cls-6" d="M903,869.89l-.33,34.82.45,17.84-64.28-1-1.92-1.9.71-1.48c16.88-12.33,32.41-24.42,41-35.31l1.19-14.72Z"/><path id="Path-32-2" data-name="Path-32" class="cls-11" d="M1000,878.75l.38,9c.11,2.85,5,31.3,2.49,32s-74.48,7-65.78,0,36.28-27.28,36-33l.76-4.81"/><path id="Path-33-2" data-name="Path-33" class="cls-11" d="M902.89,873.54c-.74,18.36-.71,26.32-.18,31.17a132.47,132.47,0,0,1,.45,17.84l-64.28-1a2,2,0,0,1-1.92-1.9,1.8,1.8,0,0,1,.71-1.48q41.08-30.93,41-35.31l.51-6.38"/><polygon id="Path-36" class="cls-6" points="960.47 440.88 948.56 437.97 944.97 416.19 948.97 409.12 950.57 401.66 956.17 400.79 958.75 395.37 956.94 389.8 955.1 388.21 956.97 378.28 919.4 377.33 917.27 378.66 912.79 388.62 910.67 399.75 913.47 409.03 918.05 414.59 924.4 418.27 926.69 417.92 929.68 438.18 913.52 439.85 929.28 456.03 961.46 455.2 960.47 440.88"/><path id="Path-20" class="cls-11" d="M953.09,439.71l-5-.78-3.21-22.43s3.45-6,4.08-7.38a28.24,28.24,0,0,0,1.56-7.42q9.09-.68,8-8t-9.21-5.23"/><path id="Path-21" class="cls-11" d="M915.07,384.22q-5.75,10.88-3.92,18.21,4.59,14.73,16.3,16l2.13,20.08-8,1.21"/><path id="Path-31" class="cls-5" d="M990.18,600.17c1.46,17.7,17.67,273.41,17.67,273.41q-22.36,4-33.49,4t-16-4L945.17,652.71c-6.28,2.74-13.7,2.65-18.87-1l-10.79,216.4c-11.64,1.67-28.12,3.38-33.91,3.29a82.31,82.31,0,0,1-19.74-3.1s12.33-253,25.1-266.74S977.63,591.16,990.18,600.17Z"/><path id="Path-22" class="cls-11" d="M955.66,385.16a12.39,12.39,0,0,0-7.71-.39"/><path id="Path-23" class="cls-5" d="M956.74,382.44a25.63,25.63,0,0,0-10.52-1.08c-.45-1.25-1-2.64-1.65-4.18q-7.85,11.22-27.32,2.28c-19.47-8.93-1.58-42.56,18.08-31.78q10.63,6,12.32,10.54,7.83-.08,9.91,4.16Q961.54,368,956.74,382.44Z"/><path class="cls-6" d="M787.54,496.14c9.92-1.78,19.23,2.17,22.7,4.78s6.23,4.5,10.9,5.46c9.52.51,35,2.6,50.16,4.08-1.51-3.1,4.29-16.65,4.29-16.65s16.6,2,19,4.22c2,1.89,3.85,10.72,4.55,14.59h0c.09.54.17,1.09.25,1.64h0a26.61,26.61,0,0,1-4.27,19.19c-2.17,4.3-34,4.11-81.67-14.72-14.48-2-17,1.41-31.9-7.37S777.62,497.92,787.54,496.14Z"/><path class="cls-11" d="M899.19,512.62c1,6.1,1,13.35-4,20.84-2.17,4.3-34,4.11-81.67-14.72-14.48-2-17,1.41-31.9-7.37s-4-13.45,5.94-15.23,19.23,2.17,22.7,4.78,6.23,4.5,10.9,5.46c11.14.59,40,2.92,52.64,4.32"/><line class="cls-11" x1="872.52" y1="502.94" x2="871.35" y2="510.46"/><rect class="cls-1" x="606.79" y="408.34" width="245.72" height="184.29" rx="92.14"/><path class="cls-12" d="M721.91,592.62h-23a92.14,92.14,0,0,1-92.14-92.14h0q0-3.37.24-6.69"/><path class="cls-12" d="M769.54,408.79a92.15,92.15,0,0,1,83,91.69h0a92.16,92.16,0,0,1-86.71,92"/><path class="cls-12" d="M627.67,442.06a92,92,0,0,1,71.26-33.72h23"/><path class="cls-6" d="M767.12,551.57A15.72,15.72,0,0,1,756,546.86l-51.16-54.73-3,3.15-9.45,9.31-25.67-26.06L679,466.4l3.3,2.26a3.42,3.42,0,0,0,1.48.43,1.33,1.33,0,0,0,1.05-.5,13.11,13.11,0,0,0,2.34-4.13,30.2,30.2,0,0,1,10.68-13.84c5.82-4.32,13-6.48,21.29-6.42,13.19.1,24.79,5.84,25.28,6.08l-1.72,9.19c-8.07.75-22.2,3.54-16.22,9.64l52.06,55.63a15.81,15.81,0,0,1-11.44,26.83Zm-20.71-75.46,2.87,3.07,4.18,4.47,2.87,3.07,4.88,5.21,18-17.55a14.42,14.42,0,0,0,4.33-10.23,14.58,14.58,0,0,0-4.2-10.37,14.52,14.52,0,0,0-20.56-.15l-17.49,17ZM711,513.06l-20.21,19.27a15.93,15.93,0,0,1-3.87,2.68L684,536.46,679,546.86l4,4.08,10.26-5.12,1.48-2.81a16.18,16.18,0,0,1,2.82-3.75l20-19.1Zm-1.87-24.56,15.48-13.78M688.93,476l12.13,13.1"/><line class="cls-6" x1="764.75" y1="460.95" x2="751.84" y2="473.67"/><line class="cls-6" x1="771.14" y1="467.45" x2="758.24" y2="480.16"/><path class="cls-13" d="M767.12,551.57A15.72,15.72,0,0,1,756,546.86l-51.16-54.73-3,3.15-9.45,9.31-25.67-26.06L679,466.4l3.3,2.26a3.42,3.42,0,0,0,1.48.43,1.33,1.33,0,0,0,1.05-.5,13.11,13.11,0,0,0,2.34-4.13,30.2,30.2,0,0,1,10.68-13.84c5.82-4.32,13-6.48,21.29-6.42,13.19.1,24.79,5.84,25.28,6.08l-1.72,9.19c-8.07.75-22.2,3.54-16.22,9.64l52.06,55.63a15.81,15.81,0,0,1-11.44,26.83Zm-20.71-75.46,2.87,3.07,4.18,4.47,2.87,3.07,4.88,5.21,18-17.55a14.42,14.42,0,0,0,4.33-10.23,14.58,14.58,0,0,0-4.2-10.37,14.52,14.52,0,0,0-20.56-.15l-17.49,17ZM711,513.06l-20.21,19.27a15.93,15.93,0,0,1-3.87,2.68L684,536.46,679,546.86l4,4.08,10.26-5.12,1.48-2.81a16.18,16.18,0,0,1,2.82-3.75l20-19.1Zm-1.87-24.56,15.48-13.78M688.93,476l12.13,13.1"/><line class="cls-13" x1="764.75" y1="460.95" x2="751.84" y2="473.67"/><line class="cls-13" x1="771.14" y1="467.45" x2="758.24" y2="480.16"/><path id="Path-24" class="cls-5" d="M961,439.86c-6.73,9.4-19.91,15.35-29.19,14-13.93-2-13.15-7.53-15.87-14.33-8.69-2.06-24.49,6.17-30,12.18a79.83,79.83,0,0,0-18.86,44.07L889.8,507.2c-1.73,16.87-.56-.25-3.74,35.13q-1.17,23.46-4.57,60.15,38.58,12.56,58.57,12.6t55.17-12.34l-8-94.1c1.67-.71,8.79-27.55,4.26-48.23S980.61,442.91,961,439.86Z"/><path class="cls-1" d="M976,441.23c-13.13,10,2.62,76,12.19,74.42,8.17-1.36,10.45,80,6.36,92.24-3.18,5.45-78.1,17.37-118.23-4.24,0,0,.62-86.87,8.75-88.75s5.29-68.7,7.68-70.85,18.74-6.52,23.53-5.87,3.35,35.56,9.18,34.59,28.2-34.83,33.7-35S976,441.23,976,441.23Z"/><path class="cls-12" d="M965.13,442c-4.53,7.62-4.28,100.17,9.9,117.73"/><path class="cls-12" d="M902.92,443.67c3.16,6.31-.31,99.56-6.32,113"/><path id="Path-93" class="cls-6" d="M929.5,525.63c-9.78,7.12-23.6,3-23.6,3L844,519.3a28.62,28.62,0,0,1-14.16,4.26c-7.74,0-21.4-6-24.19-13.42s20.21-9.44,25.79-10.06q5.56-.61,18.71,4l59.87-3.2,10.46-7,24.57,21.91Z"/><path id="Path-93-2" data-name="Path-93" class="cls-14" d="M929.5,525.63c-9.78,7.12-23.6,3-23.6,3L844,519.3a28.62,28.62,0,0,1-14.16,4.26c-7.74,0-21.4-6-24.19-13.42s20.21-9.44,25.79-10.06q5.56-.61,18.71,4l59.87-3.2"/><path id="Path-88" class="cls-5" d="M938.71,525l-26.26-31c29.43-29.31,76.37-75,78-32.75C992.23,508.78,938.71,525,938.71,525Z"/><path id="Path-88-2" data-name="Path-88" class="cls-14" d="M982.34,493.79C965.64,515,938.71,525,938.71,525"/><path class="cls-14" d="M931,484.8c-3.72.76-6.6,3.22-9.63,6.74"/><path class="cls-12" d="M879.88,554c11.2,7.56,117.38,9.63,110.37,3"/><path class="cls-12" d="M879.88,579.68c3.79,8.91,112.09,11.57,110.37,3"/><rect class="cls-2" width="1200" height="1200"/></svg>